<svg width="20" height="20" viewBox="0 0 20 20" fill="none" xmlns="http://www.w3.org/2000/svg">
<g clip-path="url(#clip0_170:2400)">
<path d="M19.7558 2.26978H0.244232C0.109347 2.26978 0 2.36702 0 2.48695V14.8001C0 14.92 0.109347 15.0173 0.244232 15.0173H7.19225H7.45583H7.71939L7.63415 16.5771H12.3659L12.2807 15.0173H12.5442H12.8078H19.7558C19.8907 15.0173 20 14.92 20 14.8001V2.48695C20 2.367 19.8907 2.26978 19.7558 2.26978ZM18.9915 13.813C18.9915 13.9157 18.8932 13.9989 18.7719 13.9989H12.7521H12.4885H12.2249H7.77499H7.51143H7.24787H1.22813C1.10684 13.9989 1.00853 13.9157 1.00853 13.813V3.3654C1.00853 3.26272 1.10684 3.17948 1.22813 3.17948H18.7719C18.8931 3.17948 18.9915 3.26272 18.9915 3.3654L18.9915 13.813Z" fill="#6FCF97"/>
<path d="M13.459 17.513V17.2307C13.459 17.1108 13.3617 17.0135 13.2418 17.0135H12.9168H12.6532H12.3896H7.61023H7.34666H7.08312H6.75811C6.63818 17.0135 6.54095 17.1108 6.54095 17.2307V17.513C6.54095 17.6329 6.6382 17.7302 6.75811 17.7302H7.04396H12.9559H13.2417C13.3617 17.7302 13.459 17.6329 13.459 17.513Z" fill="#6FCF97"/>
<path d="M9.99999 3.91577C7.41892 3.91577 5.32654 6.00815 5.32654 8.58922C5.32654 10.4479 6.41167 12.0531 7.98296 12.8061C8.2018 12.9109 8.43014 12.999 8.6662 13.0692C9.08889 13.1949 9.53652 13.2627 9.99999 13.2627C10.4635 13.2627 10.9111 13.1948 11.3338 13.0692C11.5699 12.9991 11.7982 12.9109 12.017 12.8061C13.5883 12.0531 14.6734 10.4479 14.6734 8.58922C14.6734 6.00815 12.5811 3.91577 9.99999 3.91577ZM13.8796 10.2279C13.8231 10.3614 13.7599 10.4912 13.6906 10.6173L11.8981 10.8841C11.8369 10.8932 11.7678 10.9467 11.7436 11.0036L11.0342 12.6718C10.6985 12.7567 10.3526 12.7995 9.99999 12.7995C9.6474 12.7995 9.30144 12.7566 8.96576 12.6718L8.25641 11.0036C8.23224 10.9467 8.16306 10.8932 8.10193 10.8841L6.30936 10.6173C6.24005 10.4912 6.17687 10.3615 6.12037 10.2279C5.95193 9.82967 5.84749 9.41215 5.80793 8.98242L7.14087 7.75581C7.18633 7.71396 7.21355 7.63087 7.20165 7.57023L6.85239 5.79316C6.90734 5.73143 6.96403 5.67093 7.02287 5.61209C7.39927 5.23569 7.83595 4.9383 8.32106 4.72718L9.90235 5.61272C9.95628 5.64293 10.0437 5.64293 10.0976 5.61272L11.6789 4.72718C12.164 4.9383 12.6007 5.23569 12.9771 5.61209C13.0359 5.67093 13.0926 5.73141 13.1476 5.79316L12.7983 7.57023C12.7864 7.63089 12.8136 7.71398 12.8591 7.75581L14.192 8.98242C14.1525 9.41215 14.0481 9.82967 13.8796 10.2279Z" fill="#6FCF97"/>
<path d="M11.7095 7.96264L10.0905 6.78641C10.0405 6.75007 9.95945 6.75007 9.90945 6.78641L8.2905 7.96264C8.2405 7.99898 8.21547 8.07607 8.23454 8.13487L8.85292 10.0381C8.87202 10.0968 8.93762 10.1445 8.99943 10.1445H11.0006C11.0624 10.1445 11.128 10.0969 11.1471 10.0381L11.7655 8.13487C11.7845 8.07605 11.7595 7.99896 11.7095 7.96264Z" fill="#6FCF97"/>
</g>
<defs>
<clipPath id="clip0_170:2400">
<rect width="20" height="20" fill="white"/>
</clipPath>
</defs>
</svg>
