<svg width="20" height="20" viewBox="0 0 20 20" fill="none" xmlns="http://www.w3.org/2000/svg">
<g clip-path="url(#clip0_170:2409)">
<path d="M19.7558 2.26978H0.244232C0.109347 2.26978 0 2.36702 0 2.48695V14.8001C0 14.92 0.109347 15.0173 0.244232 15.0173H7.19225H7.45583H7.71939L7.63415 16.5771H12.3659L12.2807 15.0173H12.5442H12.8078H19.7558C19.8907 15.0173 20 14.92 20 14.8001V2.48695C20 2.367 19.8907 2.26978 19.7558 2.26978ZM18.9915 13.813C18.9915 13.9157 18.8932 13.9989 18.7719 13.9989H12.7521H12.4885H12.2249H7.77499H7.51143H7.24787H1.22813C1.10684 13.9989 1.00853 13.9157 1.00853 13.813V3.3654C1.00853 3.26272 1.10684 3.17948 1.22813 3.17948H18.7719C18.8931 3.17948 18.9915 3.26272 18.9915 3.3654L18.9915 13.813Z" fill="#6FCF97"/>
<path d="M13.459 17.513V17.2307C13.459 17.1108 13.3618 17.0135 13.2419 17.0135H12.9168H12.6533H12.3897H7.61029H7.34672H7.08318H6.75817C6.63824 17.0135 6.54102 17.1108 6.54102 17.2307V17.513C6.54102 17.6329 6.63826 17.7302 6.75817 17.7302H7.04402H12.9559H13.2418C13.3618 17.7302 13.459 17.6329 13.459 17.513Z" fill="#6FCF97"/>
<path d="M14.1072 7.01985L13.9076 6.82025C13.8228 6.73545 13.6878 6.73295 13.6061 6.81467L13.3846 7.03615L13.205 7.21575L13.0254 7.39536L9.76866 10.6521L9.58906 10.8317L9.40948 11.0113L9.18801 11.2328C9.10629 11.3145 9.1088 11.4495 9.19359 11.5343L9.39319 11.7339C9.478 11.8187 9.61302 11.8212 9.69473 11.7395L9.88952 11.5447L13.918 7.51621L14.1128 7.32143C14.1946 7.23969 14.192 7.10465 14.1072 7.01985Z" fill="#6FCF97"/>
<path d="M9.53423 11.7339L9.73383 11.5343C9.81862 11.4496 9.82112 11.3145 9.73941 11.2328L9.51793 11.0113L9.33832 10.8317L9.15872 10.6521L5.90196 7.39537L5.72236 7.21577L5.54278 7.03619L5.32131 6.81472C5.23959 6.733 5.10458 6.73551 5.01979 6.8203L4.82019 7.0199C4.73538 7.10471 4.73288 7.23973 4.81459 7.32144L5.00938 7.51623L9.03786 11.5447L9.23265 11.7395C9.31439 11.8213 9.44942 11.8188 9.53423 11.7339Z" fill="#6FCF97"/>
</g>
<defs>
<clipPath id="clip0_170:2409">
<rect width="20" height="20" fill="white"/>
</clipPath>
</defs>
</svg>
