<svg width="20" height="20" viewBox="0 0 20 20" fill="none" xmlns="http://www.w3.org/2000/svg">
<path d="M18.9883 4.581C18.9863 4.57367 18.9823 4.567 18.98 4.55967C18.973 4.539 18.9653 4.519 18.9543 4.50033C18.949 4.491 18.9417 4.483 18.9353 4.474C18.9247 4.459 18.9137 4.44433 18.9007 4.43133C18.892 4.42267 18.8823 4.41567 18.873 4.408C18.864 4.40067 18.8563 4.39233 18.8467 4.386C18.8413 4.38267 18.835 4.381 18.8297 4.378C18.8247 4.37533 18.821 4.371 18.816 4.36867L10.1493 0.0353333C10.1463 0.034 10.143 0.0346667 10.14 0.033C10.097 0.013 10.0503 0 10 0C9.94967 0 9.903 0.013 9.86033 0.033C9.85733 0.0343333 9.854 0.0336667 9.851 0.0353333L1.18433 4.36867C1.17933 4.37133 1.17567 4.37533 1.17067 4.378C1.165 4.381 1.159 4.38267 1.15367 4.386C1.14367 4.39233 1.13633 4.401 1.12733 4.408C1.11767 4.41567 1.10833 4.42267 1.09967 4.431C1.08667 4.444 1.07567 4.45867 1.065 4.47367C1.05867 4.48267 1.05133 4.49067 1.046 4.5C1.035 4.51867 1.02733 4.539 1.02033 4.55967C1.018 4.567 1.014 4.57333 1.012 4.581C1.00433 4.60867 1 4.63733 1 4.66667V15.3333C1 15.3353 1.001 15.3373 1.001 15.3393C1.001 15.346 1.00333 15.3523 1.00367 15.3587C1.00633 15.3927 1.01433 15.4253 1.02667 15.456C1.029 15.4613 1.028 15.4673 1.03067 15.4727C1.03333 15.4787 1.038 15.483 1.04133 15.4887C1.04967 15.504 1.059 15.518 1.06967 15.532C1.07833 15.5437 1.087 15.555 1.097 15.565C1.10833 15.5763 1.12067 15.5863 1.13367 15.596C1.14567 15.6053 1.15767 15.6143 1.17067 15.6217C1.17567 15.6243 1.17933 15.6287 1.18433 15.631L9.851 19.9643C9.856 19.9667 9.86133 19.9657 9.86633 19.968C9.909 19.9873 9.954 20 10 20C10.046 20 10.091 19.9873 10.1337 19.9683C10.1387 19.966 10.1443 19.967 10.149 19.9647L18.8157 15.6313C18.9287 15.575 19 15.4597 19 15.3333V4.66667C19 4.63733 18.996 4.60867 18.9883 4.581ZM2.24133 14.9143C2.16433 14.7473 1.96633 14.6743 1.799 14.7513L1.66667 14.8123V5.18767L9.66667 8.88V19.1273L2.09767 15.3427C2.249 15.259 2.315 15.074 2.24133 14.9143ZM10 1C10.1177 1 10.216 0.935667 10.2753 0.843667L17.8973 4.65467L10.3333 8.14567V8C10.3333 7.816 10.184 7.66667 10 7.66667C9.816 7.66667 9.66667 7.816 9.66667 8V8.14567L2.10267 4.65467L9.72467 0.843667C9.784 0.935667 9.88233 1 10 1ZM10.3333 11.8543L10.8787 12.106C10.924 12.127 10.9713 12.1367 11.018 12.1367C11.144 12.1367 11.2647 12.0647 11.321 11.9427C11.398 11.7757 11.325 11.5773 11.158 11.5003L10.5527 11.221C10.481 11.188 10.4047 11.1873 10.3333 11.2053V8.88L18.3333 5.18767V14.8123L17.8163 14.5737C17.6493 14.4967 17.451 14.5693 17.374 14.7367C17.2967 14.9037 17.3697 15.1017 17.537 15.179L17.8973 15.3453L10.3333 19.1273V11.8543Z" fill="#BB6BD9"/>
<path d="M6.78132 13.1523C6.82832 13.1523 6.87565 13.1426 6.92065 13.1216L7.52599 12.8423C7.69299 12.7653 7.76632 12.567 7.68899 12.4C7.61199 12.233 7.41366 12.16 7.24666 12.237L6.64132 12.5163C6.47432 12.5933 6.40099 12.7916 6.47832 12.9586C6.53465 13.0806 6.65532 13.1523 6.78132 13.1523Z" fill="#BB6BD9"/>
<path d="M4.96526 13.9903C5.01193 13.9903 5.05959 13.9807 5.10459 13.9597L5.70992 13.6803C5.87692 13.6033 5.94992 13.405 5.87292 13.238C5.79592 13.071 5.59793 12.9977 5.43059 13.075L4.82526 13.3543C4.65826 13.4313 4.58526 13.6297 4.66226 13.7967C4.71859 13.9187 4.83926 13.9903 4.96526 13.9903Z" fill="#BB6BD9"/>
<path d="M3.14936 14.8287C3.19636 14.8287 3.2437 14.8187 3.2887 14.7977L3.89403 14.5183C4.06103 14.4413 4.13436 14.243 4.05703 14.076C3.98003 13.909 3.78103 13.836 3.6147 13.913L3.00936 14.1923C2.84236 14.2693 2.76903 14.4677 2.84636 14.6347C2.9027 14.757 3.02336 14.8287 3.14936 14.8287Z" fill="#BB6BD9"/>
<path d="M14.7896 13.1767L14.1843 12.8974C14.0173 12.8204 13.819 12.8934 13.742 13.0604C13.665 13.2274 13.738 13.4257 13.905 13.5027L14.5103 13.782C14.5556 13.803 14.603 13.8127 14.6496 13.8127C14.7756 13.8127 14.8963 13.741 14.9526 13.619C15.0296 13.452 14.957 13.254 14.7896 13.1767Z" fill="#BB6BD9"/>
<path d="M16.6056 14.015L16.0003 13.7357C15.8336 13.6584 15.635 13.7314 15.558 13.8987C15.4806 14.0657 15.5536 14.2637 15.721 14.341L16.3263 14.6204C16.3716 14.6414 16.419 14.651 16.4656 14.651C16.5916 14.651 16.7123 14.5794 16.7683 14.4574C16.846 14.2904 16.7726 14.0924 16.6056 14.015Z" fill="#BB6BD9"/>
<path d="M12.9737 12.339L12.3683 12.0597C12.2013 11.982 12.003 12.0554 11.926 12.2227C11.8487 12.3897 11.9217 12.5877 12.089 12.665L12.6943 12.9444C12.7397 12.9654 12.787 12.975 12.8337 12.975C12.9597 12.975 13.0803 12.9034 13.1363 12.7814C13.214 12.614 13.141 12.416 12.9737 12.339Z" fill="#BB6BD9"/>
<path d="M8.59734 12.3141C8.64401 12.3141 8.69167 12.3044 8.73667 12.2834L9.34201 12.0041C9.50901 11.9271 9.58201 11.7287 9.50501 11.5617C9.42767 11.3947 9.23001 11.3214 9.06267 11.3987L8.45734 11.6781C8.29034 11.7551 8.21734 11.9534 8.29434 12.1204C8.35067 12.2424 8.47134 12.3141 8.59734 12.3141Z" fill="#BB6BD9"/>
<path d="M9.99996 2.99996C10.184 2.99996 10.3333 2.85063 10.3333 2.66663V1.99996C10.3333 1.81596 10.184 1.66663 9.99996 1.66663C9.81596 1.66663 9.66663 1.81596 9.66663 1.99996V2.66663C9.66663 2.85063 9.81596 2.99996 9.99996 2.99996Z" fill="#BB6BD9"/>
<path d="M9.99996 4.99996C10.184 4.99996 10.3333 4.85063 10.3333 4.66663V3.99996C10.3333 3.81596 10.184 3.66663 9.99996 3.66663C9.81596 3.66663 9.66663 3.81596 9.66663 3.99996V4.66663C9.66663 4.85063 9.81596 4.99996 9.99996 4.99996Z" fill="#BB6BD9"/>
<path d="M9.99996 6.99996C10.184 6.99996 10.3333 6.85063 10.3333 6.66663V5.99996C10.3333 5.81596 10.184 5.66663 9.99996 5.66663C9.81596 5.66663 9.66663 5.81596 9.66663 5.99996V6.66663C9.66663 6.85063 9.81596 6.99996 9.99996 6.99996Z" fill="#BB6BD9"/>
</svg>
