<svg width="20" height="20" viewBox="0 0 20 20" fill="none" xmlns="http://www.w3.org/2000/svg">
<path d="M19.6808 8.40426C19.8571 8.40426 20 8.26136 20 8.08511C20 7.90885 19.8571 7.76596 19.6808 7.76596C15.5746 7.76596 12.234 4.42532 12.234 0.319149C12.234 0.142894 12.0911 0 11.9149 0C11.7386 0 11.5957 0.142894 11.5957 0.319149C11.5957 4.77732 15.2226 8.40426 19.6808 8.40426Z" fill="#EB5757"/>
<path d="M0.319149 11.5957C0.142851 11.5957 0 11.7386 0 11.9149C0 12.0911 0.142851 12.234 0.319149 12.234C4.42532 12.234 7.76596 15.5746 7.76596 19.6808C7.76596 19.8571 7.90881 20 8.08511 20C8.2614 20 8.40426 19.8571 8.40426 19.6808C8.40426 15.2226 4.77732 11.5957 0.319149 11.5957Z" fill="#EB5757"/>
<path d="M10.6383 13.5461C10.8146 13.5461 10.9574 13.4032 10.9574 13.2269C10.9574 13.0507 10.8146 12.9078 10.6383 12.9078H10.3191V7.09221H10.6383C10.8146 7.09221 10.9574 6.94932 10.9574 6.77306C10.9574 6.59681 10.8146 6.45392 10.6383 6.45392H10.3191V3.86523H10.6383C10.8146 3.86523 10.9574 3.72234 10.9574 3.54609C10.9574 3.36983 10.8146 3.22694 10.6383 3.22694H10.3191V0.638298H10.6383C10.8146 0.638298 10.9574 0.495404 10.9574 0.319149C10.9574 0.142894 10.8146 0 10.6383 0H9.3617C9.1854 0 9.04255 0.142894 9.04255 0.319149C9.04255 0.495404 9.1854 0.638298 9.3617 0.638298H9.68085V3.22694H9.3617C9.1854 3.22694 9.04255 3.36983 9.04255 3.54609C9.04255 3.72234 9.1854 3.86523 9.3617 3.86523H9.68085V6.45387H9.3617C9.1854 6.45387 9.04255 6.59677 9.04255 6.77302C9.04255 6.94928 9.1854 7.09217 9.3617 7.09217H9.68085V9.68085H7.09221V9.3617C7.09221 9.18545 6.94936 9.04255 6.77306 9.04255C6.59677 9.04255 6.45392 9.18545 6.45392 9.3617V9.68085H3.86523V9.3617C3.86523 9.18545 3.72238 9.04255 3.54609 9.04255C3.36979 9.04255 3.22694 9.18545 3.22694 9.3617V9.68085H0.638298V9.3617C0.638298 9.18545 0.495447 9.04255 0.319149 9.04255C0.142851 9.04255 0 9.18545 0 9.3617V10.6383C0 10.8146 0.142851 10.9574 0.319149 10.9574C0.495447 10.9574 0.638298 10.8146 0.638298 10.6383V10.3191H3.22694V10.6383C3.22694 10.8146 3.36979 10.9574 3.54609 10.9574C3.72238 10.9574 3.86523 10.8146 3.86523 10.6383V10.3191H6.45392V10.6383C6.45392 10.8146 6.59677 10.9574 6.77306 10.9574C6.94936 10.9574 7.09221 10.8146 7.09221 10.6383V10.3191H9.68085V12.9078H9.3617C9.1854 12.9078 9.04255 13.0507 9.04255 13.2269C9.04255 13.4032 9.1854 13.5461 9.3617 13.5461H9.68085V16.1347H9.3617C9.1854 16.1347 9.04255 16.2776 9.04255 16.4539C9.04255 16.6301 9.1854 16.773 9.3617 16.773H9.68085V19.3617H9.3617C9.1854 19.3617 9.04255 19.5046 9.04255 19.6809C9.04255 19.8571 9.1854 20 9.3617 20H10.6383C10.8146 20 10.9574 19.8571 10.9574 19.6809C10.9574 19.5046 10.8146 19.3617 10.6383 19.3617H10.3191V16.7731H10.6383C10.8146 16.7731 10.9574 16.6302 10.9574 16.4539C10.9574 16.2777 10.8146 16.1348 10.6383 16.1348H10.3191V13.5461H10.6383V13.5461Z" fill="#EB5757"/>
<path d="M19.6808 9.0426C19.5045 9.0426 19.3617 9.1855 19.3617 9.36175V9.6809H16.773V9.36175C16.773 9.1855 16.6302 9.0426 16.4539 9.0426C16.2776 9.0426 16.1347 9.1855 16.1347 9.36175V9.6809H13.546V9.36175C13.546 9.1855 13.4032 9.0426 13.2269 9.0426C13.0506 9.0426 12.9077 9.1855 12.9077 9.36175V9.6809H11.2765C11.1002 9.6809 10.9574 9.82379 10.9574 10C10.9574 10.1763 11.1002 10.3192 11.2765 10.3192H12.9077V10.6383C12.9077 10.8146 13.0506 10.9575 13.2269 10.9575C13.4032 10.9575 13.546 10.8146 13.546 10.6383V10.3192H16.1347V10.6383C16.1347 10.8146 16.2776 10.9575 16.4539 10.9575C16.6302 10.9575 16.773 10.8146 16.773 10.6383V10.3192H19.3617V10.6383C19.3617 10.8146 19.5045 10.9575 19.6808 10.9575C19.8571 10.9575 20 10.8146 20 10.6383V9.36175C20 9.1855 19.8571 9.0426 19.6808 9.0426Z" fill="#EB5757"/>
</svg>
