<svg width="20" height="20" viewBox="0 0 20 20" fill="none" xmlns="http://www.w3.org/2000/svg">
<g clip-path="url(#clip0_170:2558)">
<path d="M19.7558 2.26978H0.244232C0.109347 2.26978 0 2.36702 0 2.48695V14.8001C0 14.92 0.109347 15.0173 0.244232 15.0173H7.19225H7.45583H7.71939L7.63415 16.5771H12.3659L12.2807 15.0173H12.5442H12.8078H19.7558C19.8907 15.0173 20 14.92 20 14.8001V2.48695C20 2.367 19.8907 2.26978 19.7558 2.26978ZM18.9915 13.813C18.9915 13.9157 18.8932 13.9989 18.7719 13.9989H12.7521H12.4885H12.2249H7.77499H7.51143H7.24787H1.22813C1.10684 13.9989 1.00853 13.9157 1.00853 13.813V3.3654C1.00853 3.26272 1.10684 3.17948 1.22813 3.17948H18.7719C18.8931 3.17948 18.9915 3.26272 18.9915 3.3654L18.9915 13.813Z" fill="#F2994A"/>
<path d="M13.459 17.513V17.2307C13.459 17.1108 13.3618 17.0135 13.2419 17.0135H12.9168H12.6533H12.3897H7.61029H7.34672H7.08318H6.75817C6.63824 17.0135 6.54102 17.1108 6.54102 17.2307V17.513C6.54102 17.6329 6.63826 17.7302 6.75817 17.7302H7.04402H12.9559H13.2418C13.3618 17.7302 13.459 17.6329 13.459 17.513Z" fill="#F2994A"/>
<path d="M13.0752 5C13.586 5 14 5.41403 14 5.92475V8.16962C14 8.52383 13.8593 8.86354 13.6089 9.11403L10.1149 12.6088C9.5932 13.1295 8.74828 13.1299 8.22583 12.6094L6.39207 10.7784C5.8699 10.2572 5.86924 9.41143 6.39052 8.88937L9.88389 5.39182C10.1344 5.14096 10.4744 5 10.829 5H13.0752ZM13.0752 5.6165H10.829C10.6381 5.6165 10.455 5.6924 10.3201 5.82748L6.82158 9.33023C6.54611 9.61172 6.5482 10.0632 6.82763 10.3421L8.66119 12.1729C8.94268 12.4533 9.39822 12.4531 9.67921 12.1727L13.1729 8.67815C13.3077 8.54327 13.3835 8.36035 13.3835 8.16962V5.92475C13.3835 5.75451 13.2455 5.6165 13.0752 5.6165ZM11.945 6.4394C12.2855 6.4394 12.5615 6.71541 12.5615 7.05589C12.5615 7.39637 12.2855 7.67238 11.945 7.67238C11.6045 7.67238 11.3285 7.39637 11.3285 7.05589C11.3285 6.71541 11.6045 6.4394 11.945 6.4394Z" fill="#F2994A"/>
</g>
<defs>
<clipPath id="clip0_170:2558">
<rect width="20" height="20" fill="white"/>
</clipPath>
</defs>
</svg>
