<svg width="20" height="20" viewBox="0 0 20 20" fill="none" xmlns="http://www.w3.org/2000/svg">
<g clip-path="url(#clip0_170:2643)">
<path d="M19.8622 6.16767C19.3505 4.74657 17.6066 3.9632 14.9454 3.9632C14.9454 3.9632 14.9454 3.9632 14.9415 3.9632C13.5952 2.86096 11.8749 2.19568 10.0011 2.19568C6.18265 2.19568 2.99403 4.95915 2.32875 8.5926C0.431324 10.2263 -0.348116 11.8757 0.143955 13.2417C0.612406 14.5486 2.19884 15.2848 4.39151 15.4147C5.81261 16.8869 7.80058 17.8042 10.0011 17.8042C14.0597 17.8042 17.4019 14.6903 17.768 10.7223C19.5158 9.17521 20.3503 7.52185 19.8622 6.16767ZM1.19108 12.8638C0.943078 12.1749 1.32099 11.2419 2.20672 10.2538C2.25395 11.6985 2.69485 13.0409 3.42705 14.1865C2.22246 13.9699 1.4194 13.5054 1.19108 12.8638ZM10.0051 16.6901C8.53278 16.6901 7.16679 16.2099 6.06061 15.3989C7.74153 15.2887 9.64289 14.8911 11.6112 14.1825C13.481 13.5133 15.1305 12.6669 16.465 11.7419C15.6934 14.588 13.0913 16.6901 10.0051 16.6901ZM16.6933 10.183C15.3824 11.2537 13.5283 12.3166 11.2372 13.1393C8.83589 14.0014 6.63535 14.3518 4.90326 14.3242C3.91125 13.1551 3.31289 11.6474 3.31289 9.99795C3.31289 6.30939 6.31255 3.30579 10.0051 3.30579C13.6936 3.30579 16.6972 6.30939 16.6972 9.99795C16.6972 10.0609 16.6933 10.12 16.6933 10.183ZM17.7601 9.17521C17.5987 7.6557 17.0043 6.27002 16.0989 5.13629C17.5633 5.30557 18.5513 5.80157 18.8151 6.54165C19.0592 7.22661 18.6734 8.17139 17.7601 9.17521Z" fill="#F741CF"/>
</g>
<defs>
<clipPath id="clip0_170:2643">
<rect width="20" height="20" fill="white"/>
</clipPath>
</defs>
</svg>
