<svg width="20" height="20" viewBox="0 0 20 20" fill="none" xmlns="http://www.w3.org/2000/svg">
<path d="M13.0734 3.07349H6.92657C3.10721 3.07349 0 6.1807 0 10.0001C0 13.8194 3.10721 16.9266 6.92657 16.9266H13.0735C16.8928 16.9266 20 13.8194 20 10.0001C20 6.1807 16.8928 3.07349 13.0734 3.07349ZM13.0734 15.6409H6.92657C3.81621 15.6409 1.28571 13.1104 1.28571 10.0001C1.28571 6.8897 3.81621 4.3592 6.92657 4.3592H13.0735C16.1838 4.3592 18.7143 6.8897 18.7143 10.0001C18.7143 13.1104 16.1838 15.6409 13.0734 15.6409Z" fill="#56CCF2"/>
<path d="M12.645 9.23763L9.63019 6.71692C8.98319 6.17599 7.9989 6.63599 7.9989 7.47935V12.5208C7.9989 13.3641 8.98319 13.8242 9.63019 13.2832L12.645 10.7625C13.1202 10.3653 13.1202 9.63485 12.645 9.23763Z" fill="#56CCF2"/>
</svg>
