<svg width="20" height="20" viewBox="0 0 20 20" fill="none" xmlns="http://www.w3.org/2000/svg">
<path d="M18.5588 5.37039H15.9259V3.86488C15.9259 3.66016 15.8013 3.51855 15.5966 3.51855H13.3744C13.1696 3.51855 12.9629 3.66016 12.9629 3.86488V5.37043H7.03703V3.86488C7.03703 3.66016 6.91242 3.51855 6.70773 3.51855H4.48551C4.28078 3.51855 4.0741 3.66016 4.0741 3.86488V5.37043H1.52324C0.70582 5.37039 0 6.01043 0 6.82676V14.9775C0 15.7934 0.70582 16.4816 1.52324 16.4816H18.5588C19.3762 16.4816 20 15.7934 20 14.9775V6.82676C20 6.01043 19.3762 5.37039 18.5588 5.37039ZM13.7037 4.2593H15.1852V5.37039H13.7037V4.2593ZM4.81481 4.2593H6.29629V5.37039H4.81481V4.2593ZM19.2593 14.9774C19.2593 15.385 18.9675 15.7408 18.5588 15.7408H1.52324C1.11453 15.7408 0.740742 15.3851 0.740742 14.9774V6.82676C0.740742 6.41879 1.11453 6.11117 1.52324 6.11117H4.48547H6.7077H13.3744H15.5966H18.5588C18.9675 6.11117 19.2593 6.41879 19.2593 6.82676V14.9774Z" fill="#421DD9"/>
<path d="M5.59653 7.19824C3.55442 7.19824 1.89282 8.85985 1.89282 10.902C1.89282 12.9441 3.55442 14.6057 5.59653 14.6057C7.63864 14.6057 9.30024 12.9441 9.30024 10.902C9.30024 8.85985 7.63864 7.19824 5.59653 7.19824ZM5.59653 13.8649C3.96278 13.8649 2.63356 12.5357 2.63356 10.902C2.63356 9.26821 3.96278 7.93899 5.59653 7.93899C7.23028 7.93899 8.5595 9.26821 8.5595 10.902C8.5595 12.5357 7.23028 13.8649 5.59653 13.8649Z" fill="#421DD9"/>
<path d="M14.4856 7.19824C12.4435 7.19824 10.7819 8.85985 10.7819 10.902C10.7819 12.9441 12.4435 14.6057 14.4856 14.6057C16.5277 14.6057 18.1893 12.9441 18.1893 10.902C18.1893 8.85985 16.5276 7.19824 14.4856 7.19824ZM14.4856 13.8649C12.8518 13.8649 11.5226 12.5357 11.5226 10.902C11.5226 9.26821 12.8518 7.93899 14.4856 7.93899C16.1193 7.93899 17.4485 9.26821 17.4485 10.902C17.4485 12.5357 16.1193 13.8649 14.4856 13.8649Z" fill="#421DD9"/>
<path d="M5.59644 8.67969C4.6734 8.67969 4.48535 11.613 4.48535 11.6427C4.48535 12.2554 4.98375 12.7537 5.59644 12.7537C6.20913 12.7537 6.70753 12.2554 6.70753 11.6427C6.70757 11.613 6.51948 8.67969 5.59644 8.67969ZM5.59644 12.013C5.39207 12.013 5.22605 11.847 5.22605 11.6427C5.22605 11.286 5.4116 10.218 5.59644 9.67254C5.78128 10.218 5.96683 11.2861 5.96683 11.6427C5.96683 11.847 5.80082 12.013 5.59644 12.013Z" fill="#421DD9"/>
<path d="M14.5711 9.84029C14.0402 9.53432 13.3602 9.71732 13.0535 10.2472C12.9052 10.5044 12.8658 10.8038 12.9424 11.0903C13.0194 11.3771 13.2032 11.6165 13.4603 11.7652C13.6752 11.8893 14.319 12.1536 14.8988 12.3349C15.3787 12.4846 15.7368 12.5598 16.0026 12.5598C16.2952 12.5598 16.4754 12.4683 16.5817 12.2842C17.0516 11.4708 14.5972 9.85514 14.5711 9.84029ZM13.8307 11.1236C13.6538 11.0216 13.5927 10.7944 13.6951 10.6176C13.7634 10.4989 13.8886 10.4324 14.0167 10.4324C14.0796 10.4324 14.1429 10.4483 14.2008 10.4819C14.5097 10.6603 15.3419 11.3554 15.722 11.788C15.1574 11.6751 14.1396 11.3019 13.8307 11.1236Z" fill="#421DD9"/>
</svg>
